<?xml version="1.0" encoding="utf-8"?>
<!-- Generator: Adobe Illustrator 19.2.0, SVG Export Plug-In . SVG Version: 6.00 Build 0)  -->
<svg version="1.1" id="logo" xmlns="http://www.w3.org/2000/svg" xmlns:xlink="http://www.w3.org/1999/xlink" x="0px" y="0px"
	 viewBox="0 0 500 500" style="enable-background:new 0 0 500 500;" xml:space="preserve">
<path d="M199.7,238.8l-3.1-5.2L107,45.1l0,0c-3.2-7.5-1.2-13.5,10.2-13.5v-6.1H5.4v6.1c11.4,0,13.7,6.6,19.1,16.6l0,0l132.2,278.1
	l1.5-3.5L115.9,421c-7-19.4-28.6-29.5-48.2-22.5c-19.6,7-29.7,28.4-22.7,47.9s28.6,29.5,48.2,22.5c11-3.9,19.6-12.8,23.1-23.8l0,0
	l87-200l0,0"/>
<path d="M280.1,260.5c1.4,4.3,28.8,53.2,31.1,58l60.3,115.9l0,0l10.4,19.7l0,0c3.2,7.5,1.2,13.8-10.4,13.8v6.4H495v-6.2l0,0
	c-6.8,0.4-13.1-3.5-15.6-9.8l-3.7-7l0,0l-49.9-94.8l0,0l-99.4-200.1"/>
<path d="M289.9,258.4l95.2-209.8c5.4-10.2,7.7-16.8,19.5-16.8v-6.3h-39.8v6.3c11.6,0,13.6,6.3,10.4,13.7l-92.6,211"/>
<path d="M193.2,268.4l96.6-219.8c5.4-10.2,7.5-16.9,19.3-16.9v-6.2h-39.6v6.3c11.6,0,13.6,6.3,10.4,13.7l-88.6,211"/>
</svg>
